<svg width="649.314" xmlns="http://www.w3.org/2000/svg" height="587.751" fill="none"><g xml:space="preserve" style="fill: rgb(0, 0, 0);"><path d="M175.298,544.605C174.051,550.247,174.880,555.422,178.258,560.265C181.443,564.833,183.503,570.004,179.946,575.108C176.423,580.163,171.151,582.080,164.984,580.533C153.733,577.711,143.506,579.307,133.584,585.803C125.616,591.018,116.633,585.220,116.113,574.884C115.927,571.183,117.324,567.420,117.829,563.662C118.606,557.878,119.236,552.074,119.998,545.695C114.641,546.232,110.709,546.073,107.114,547.095C97.395,549.857,87.774,546.874,78.116,546.998C74.183,547.048,70.188,544.845,66.278,543.503C59.261,541.095,52.040,539.092,45.343,535.977C27.937,527.881,15.945,513.589,6.282,497.812C-1.348,485.352,-0.316,470.580,0.704,456.421C1.527,445.001,5.796,434.538,10.268,424.066C28.383,381.652,60.060,352.493,100.017,331.319C118.023,321.778,136.944,322.752,155.961,327.241C175.787,331.921,193.227,341.454,208.439,354.873C216.368,361.868,223.404,369.708,223.604,382.117C223.399,384.616,223.320,386.281,223.123,387.932C221.311,403.096,206.197,408.684,196.063,400.682C195.167,399.975,194.068,399.070,193.047,399.050C187.383,398.938,184.364,394.804,180.591,391.573C177.786,389.171,174.432,387.245,171.043,385.734C167.176,384.009,162.937,383.139,158.978,381.596C155.898,380.396,153.096,378.474,150.003,377.321C137.300,372.583,124.459,374.432,111.630,376.818C106.079,377.851,101.444,380.203,97.545,384.555C94.831,387.585,90.850,389.443,87.857,392.271C84.809,395.153,81.593,398.220,79.670,401.851C76.339,408.143,74.590,415.309,70.998,421.416C66.729,428.675,62.854,435.248,62.166,444.392C61.338,455.389,67.468,464.040,68.525,474.123C68.623,475.058,69.874,476.007,70.780,476.701C76.566,481.130,82.046,486.128,88.340,489.670C93.482,492.564,99.519,494.142,105.354,495.409C108.227,496.033,111.526,494.496,114.657,494.182C118.934,493.754,120.114,491.693,120.322,487.333C120.877,475.747,122.012,464.171,123.447,452.658C123.802,449.808,125.709,446.787,127.708,444.571C135.030,436.457,144.815,435.951,154.869,436.421C162.531,436.780,166.504,439.102,168.152,446.677C169.618,453.418,169.805,460.465,170.217,467.397C170.520,472.514,170.276,477.664,170.276,483.368C172.383,482.773,173.989,482.466,175.482,481.873C186.756,477.399,198.194,473.278,209.220,468.255C223.411,461.789,237.266,454.586,251.266,447.700C257.625,443.768,263.952,439.782,270.353,435.920C275.234,432.976,276.566,428.589,276.410,423.177C275.897,405.379,275.589,387.575,275.185,369.774C274.504,339.826,274.124,309.866,273.003,279.935C272.319,261.677,270.454,243.465,269.186,225.228C268.841,220.256,268.734,215.268,268.399,209.544C263.771,204.682,259.842,199.453,254.610,196.719C247.787,193.155,239.449,192.482,232.641,188.898C224.115,184.410,215.359,181.269,206.055,179.228C204.341,178.852,201.839,178.160,201.324,176.933C199.410,172.373,195.269,171.553,191.463,170.161C174.831,164.079,157.514,159.766,142.814,149.000C136.620,144.464,129.020,141.881,122.643,137.551C117.192,133.849,113.084,128.067,107.479,124.718C97.244,118.603,93.260,108.969,90.015,98.499C87.920,91.741,90.653,83.147,96.016,78.360C97.384,77.138,97.398,74.398,98.035,72.356C101.611,68.510,105.183,64.661,108.772,60.827C108.990,60.593,109.427,60.546,109.609,60.299C118.151,48.726,131.157,42.754,142.229,34.372C160.137,20.816,180.104,11.028,201.531,4.712C223.846,-1.866,246.724,-0.899,269.285,3.584C304.653,10.613,339.892,18.298,375.162,25.813C385.201,27.952,395.161,30.462,405.680,33.212C416.034,37.888,425.871,42.139,435.690,46.431C438.708,47.750,441.864,48.883,444.636,50.616C457.383,58.583,468.322,68.599,477.413,80.572C480.183,84.221,483.150,87.881,485.063,91.985C489.003,100.441,492.760,109.045,495.691,117.887C497.753,124.108,501.318,130.220,499.086,137.426C496.966,144.270,496.055,151.537,493.480,158.178C491.141,164.211,487.278,169.652,484.086,175.354C463.354,193.843,441.167,209.436,412.844,214.300C392.034,217.873,371.283,218.835,350.202,217.596C330.680,216.450,330.129,221.997,330.983,237.935C331.871,254.504,334.364,270.986,336.092,287.513C336.280,289.315,336.003,291.162,336.022,292.987C336.133,303.588,336.006,314.200,336.455,324.788C337.172,341.737,338.285,358.670,339.214,375.611C339.587,382.423,339.962,389.236,340.245,396.052C340.414,400.108,342.442,401.016,345.834,399.446C354.888,395.255,363.906,390.984,372.929,386.725C404.372,371.884,435.352,355.931,467.417,342.584C488.032,334.002,510.208,329.143,531.740,322.804C561.955,313.910,592.777,313.233,623.785,316.875C630.149,317.622,636.489,319.517,642.538,321.715C648.455,323.864,650.352,327.953,648.794,332.468C647.044,337.537,643.534,339.011,637.107,338.058C628.992,336.855,620.821,336.150,612.698,338.198C612.375,338.279,612.046,338.348,611.716,338.382C597.686,339.795,583.576,340.687,569.656,342.816C561.888,344.005,554.429,347.232,546.842,349.576C543.681,350.552,540.596,352.287,537.394,352.515C528.364,353.157,520.703,357.059,512.795,360.952C505.682,364.453,497.905,366.596,490.443,369.398C486.621,370.834,482.812,372.316,479.070,373.943C477.097,374.801,475.389,376.352,473.372,377.016C463.379,380.304,454.533,385.657,445.369,390.709C436.703,395.486,427.292,399.482,418.112,403.325C411.003,406.301,403.949,408.499,398.478,414.146C398.142,414.493,397.664,414.757,397.203,414.921C382.278,420.230,371.229,431.988,357.277,438.916C356.543,439.280,355.613,439.751,355.316,440.415C351.126,449.790,343.982,458.229,344.500,469.167C345.011,479.946,345.999,490.757,347.748,501.394C348.423,505.494,351.503,509.338,353.978,512.963C356.663,516.894,361.016,520.150,357.709,525.701C355.600,529.241,351.684,529.696,344.612,526.889C338.128,524.315,331.652,521.648,325.420,518.529C313.445,512.537,301.485,511.338,288.821,516.487C284.829,518.110,280.046,518.847,275.766,518.455C269.455,517.877,268.082,514.394,270.993,508.651C275.815,499.140,274.706,488.802,274.920,478.737C275.006,474.690,271.516,474.897,268.613,476.458C262.766,479.603,257.036,482.973,251.125,485.991C248.062,487.556,244.716,488.568,240.925,490.139C236.810,493.387,233.617,496.969,229.649,499.126C222.191,503.182,214.276,506.394,206.579,510.018C205.708,510.429,204.801,511.089,204.283,511.878C198.818,520.205,189.385,522.288,181.240,526.139C174.075,529.527,173.746,528.943,174.266,536.713C174.442,539.355,174.945,541.975,175.298,544.605ZM342.090,93.245C339.806,92.820,337.512,92.446,335.241,91.964C317.066,88.102,301.224,80.075,286.497,68.418C271.310,56.397,252.670,54.826,234.424,59.833C221.382,63.412,209.114,69.773,196.435,74.723C187.079,78.376,178.023,82.399,171.087,90.045C161.760,100.328,161.185,109.059,169.739,119.855C180.160,133.008,193.356,142.918,208.574,149.634C221.003,155.118,233.969,159.457,246.889,163.720C252.089,165.435,257.802,165.594,262.999,166.416C263.550,165.403,263.888,165.077,263.836,164.834C262.762,159.813,261.629,154.805,260.538,149.787C258.554,140.668,262.007,135.225,270.907,133.335C285.439,130.249,299.930,131.123,314.517,133.190C320.317,134.011,323.893,136.837,325.107,142.071C327.457,152.214,329.364,162.467,331.139,172.728C331.605,175.416,331.513,177.581,335.150,177.560C350.917,177.467,366.693,177.822,382.451,177.426C394.761,177.116,403.621,169.386,410.760,160.660C416.712,153.385,420.444,144.241,420.865,134.512C421.365,122.949,415.234,108.223,400.416,105.311C387.404,102.753,374.550,99.402,361.581,96.610C355.426,95.285,349.166,94.446,342.090,93.245ZL342.090,93.245Z" style="fill: rgb(70, 118, 76);" class="fills"/><path d="M251.009,447.363C237.266,454.586,223.411,461.789,209.220,468.255C198.194,473.278,186.756,477.399,175.482,481.873C173.989,482.466,172.383,482.773,170.276,483.368C170.276,477.664,170.520,472.514,170.217,467.397C169.805,460.465,169.618,453.418,168.152,446.677C166.504,439.102,162.531,436.780,154.869,436.421C144.815,435.951,135.030,436.457,127.708,444.571C125.709,446.787,123.802,449.808,123.447,452.658C122.012,464.171,120.877,475.747,120.322,487.333C120.114,491.693,118.934,493.754,114.657,494.182C111.526,494.496,108.227,496.033,105.354,495.409C99.519,494.142,93.482,492.564,88.340,489.670C82.046,486.128,76.566,481.130,70.780,476.701C69.874,476.007,68.623,475.058,68.525,474.123C67.468,464.040,61.338,455.389,62.166,444.392C62.854,435.248,66.729,428.675,70.998,421.416C74.590,415.309,76.339,408.143,79.670,401.851C81.593,398.220,84.809,395.153,87.857,392.271C90.850,389.443,94.831,387.585,97.545,384.555C101.444,380.203,106.079,377.851,111.630,376.818C124.459,374.432,137.300,372.583,150.003,377.321C153.096,378.474,155.898,380.396,158.978,381.596C162.937,383.139,167.176,384.009,171.043,385.734C174.432,387.245,177.786,389.171,180.591,391.573C184.364,394.804,187.383,398.938,193.047,399.050C194.068,399.070,195.167,399.975,196.063,400.682C206.197,408.684,221.311,403.096,223.123,387.932C223.320,386.281,223.399,384.616,223.726,382.517C236.648,394.302,243.977,409.552,248.003,426.421C249.603,433.126,249.875,440.148,251.009,447.363ZZ" style="fill: rgb(156, 181, 156);" class="fills"/><path d="M97.688,72.371C97.398,74.398,97.384,77.138,96.016,78.360C90.653,83.147,87.920,91.741,90.015,98.499C93.260,108.969,97.244,118.603,107.479,124.718C113.084,128.067,117.192,133.849,122.643,137.551C129.020,141.881,136.620,144.464,142.814,149.000C157.514,159.766,174.831,164.079,191.463,170.161C195.269,171.553,199.410,172.373,201.324,176.933C201.839,178.160,204.341,178.852,206.055,179.228C215.359,181.269,224.115,184.410,232.641,188.898C239.449,192.482,247.787,193.155,254.610,196.719C259.842,199.453,263.771,204.682,268.217,209.173C249.352,207.496,230.458,206.050,211.768,203.247C187.415,199.596,163.592,193.424,140.630,184.378C119.152,175.916,98.684,165.703,82.676,148.375C67.884,132.363,65.096,112.427,75.439,95.197C80.984,85.959,88.346,78.363,97.688,72.371ZZ" style="fill: rgb(157, 181, 157);" class="fills"/><path d="M484.457,175.438C487.278,169.652,491.141,164.211,493.480,158.178C496.055,151.537,496.966,144.270,499.086,137.426C501.318,130.220,497.753,124.108,495.691,117.887C492.760,109.045,489.003,100.441,485.063,91.985C483.150,87.881,480.183,84.221,477.413,80.572C468.322,68.599,457.383,58.583,444.636,50.616C441.864,48.883,438.708,47.750,435.690,46.431C425.871,42.139,416.034,37.888,406.063,33.312C408.846,33.316,411.836,33.341,414.683,33.991C439.681,39.693,464.174,46.969,487.103,58.690C502.154,66.383,516.127,75.607,526.620,89.240C539.938,106.542,540.464,125.889,527.243,143.414C516.154,158.114,501.395,168.027,484.457,175.438ZZ" style="fill: rgb(157, 181, 157);" class="fills"/><path d="M175.687,544.577C174.945,541.975,174.442,539.355,174.266,536.713C173.746,528.943,174.075,529.527,181.240,526.139C189.385,522.288,198.818,520.205,204.283,511.878C204.801,511.089,205.708,510.429,206.579,510.018C214.276,506.394,222.191,503.182,229.649,499.126C233.617,496.969,236.810,493.387,240.691,490.413C236.253,498.065,232.264,506.404,226.541,513.306C213.330,529.239,196.238,539.528,175.687,544.577ZZ" style="fill: rgb(157, 181, 157);" class="fills"/><path d="M342.522,93.316C349.166,94.446,355.426,95.285,361.581,96.610C374.550,99.402,387.404,102.753,400.416,105.311C415.234,108.223,421.365,122.949,420.865,134.512C420.444,144.241,416.712,153.385,410.760,160.660C403.621,169.386,394.761,177.116,382.451,177.426C366.693,177.822,350.917,177.467,335.150,177.560C331.513,177.581,331.605,175.416,331.139,172.728C329.364,162.467,327.457,152.214,325.107,142.071C323.893,136.837,320.317,134.011,314.517,133.190C299.930,131.123,285.439,130.249,270.907,133.335C262.007,135.225,258.554,140.668,260.538,149.787C261.629,154.805,262.762,159.813,263.836,164.834C263.888,165.077,263.550,165.403,262.999,166.416C257.802,165.594,252.089,165.435,246.889,163.720C233.969,159.457,221.003,155.118,208.574,149.634C193.356,142.918,180.160,133.008,169.739,119.855C161.185,109.059,161.760,100.328,171.087,90.045C178.023,82.399,187.079,78.376,196.435,74.723C209.114,69.773,221.382,63.412,234.424,59.833C252.670,54.826,271.310,56.397,286.497,68.418C301.224,80.075,317.066,88.102,335.241,91.964C337.512,92.446,339.806,92.820,342.522,93.316ZZ" style="fill: rgb(156, 180, 156);" class="fills"/></g></svg>